<svg xmlns="http://www.w3.org/2000/svg" width="24" height="21" viewBox="0 0 80.035 70.031"><path fill="transparent" stroke="#7f7f7f" stroke-width="4.927" d="M2.463 31.824q0-4.789 1.893-9.248 1.892-4.46 5.361-8.087 3.47-3.626 8.07-6.333 4.598-2.707 10.324-4.2 5.727-1.493 11.836-1.493 6.107 0 11.834 1.492 5.725 1.494 10.325 4.2 4.599 2.708 8.07 6.334 3.47 3.627 5.362 8.087 1.891 4.46 1.891 9.248 0 5.97-2.967 11.384-2.967 5.414-7.982 9.336-5.015 3.922-11.957 6.248-6.94 2.325-14.576 2.325-7.463 0-14.334-2.221l-8.537 6.038q-4.789 3.02-6.733 1.752-1.943-1.266-.867-7.13l1.77-8.886q-4.2-3.887-6.49-8.71-2.29-4.825-2.29-10.136Z"/></svg>